<svg xmlns="http://www.w3.org/2000/svg" viewBox="0 0 64 64">
  <defs>
    <linearGradient id="fireGrad" x1="0%" y1="100%" x2="100%" y2="0%">
      <stop offset="0%" style="stop-color:#E63946"/>
      <stop offset="50%" style="stop-color:#FF6B00"/>
      <stop offset="100%" style="stop-color:#FFD700"/>
    </linearGradient>
    <linearGradient id="bgGrad" x1="0%" y1="0%" x2="100%" y2="100%">
      <stop offset="0%" style="stop-color:#1A0A00"/>
      <stop offset="100%" style="stop-color:#0A0A0A"/>
    </linearGradient>
  </defs>
  <!-- Background circle -->
  <circle cx="32" cy="32" r="30" fill="url(#bgGrad)" stroke="url(#fireGrad)" stroke-width="2"/>
  <!-- Flame -->
  <path d="M32 8 C28 16 22 20 22 30 C22 37 26 42 32 46 C38 42 42 37 42 30 C42 20 36 16 32 8Z" fill="url(#fireGrad)" opacity="0.9"/>
  <!-- Inner flame highlight -->
  <path d="M32 16 C30 22 27 25 27 32 C27 36 29 39 32 42 C35 39 37 36 37 32 C37 25 34 22 32 16Z" fill="#FFD700" opacity="0.6"/>
  <!-- Burger bun top -->
  <ellipse cx="32" cy="44" rx="16" ry="5" fill="#D4880F" opacity="0.9"/>
  <!-- Burger patty -->
  <rect x="17" y="45" width="30" height="4" rx="2" fill="#8B4513" opacity="0.9"/>
  <!-- Burger bun bottom -->
  <ellipse cx="32" cy="50" rx="14" ry="4" fill="#D4880F" opacity="0.9"/>
</svg>
